<svg width="128" height="121" viewBox="0 0 128 121" fill="none" xmlns="http://www.w3.org/2000/svg">
<path d="M36.2343 63.8113L36.2391 63.8291L36.2442 63.8468C37.224 67.276 38.9458 70.0813 41.518 72.0553C44.1688 74.0896 47.6589 74.948 51.68 74.948H52.04C53.0557 74.948 54.1199 74.6236 54.9598 73.7838L53.192 72.016L54.9598 73.7838C55.7996 72.9439 56.124 71.8796 56.124 70.864V68.2C56.124 67.1844 55.7996 66.1201 54.9598 65.2802C54.1723 64.4927 53.1624 64.116 52.112 64.116H51.7793C49.8647 64.0723 48.8528 63.6033 48.3165 63.1007C47.7226 62.4959 47.1377 61.389 46.8049 59.4537C46.4986 57.3813 46.332 54.3188 46.332 50.2C46.332 45.4902 45.135 41.5358 42.4661 38.752C45.135 35.9682 46.332 32.0138 46.332 27.304C46.332 23.1806 46.4991 20.1454 46.8042 18.1261C47.1369 16.1884 47.7222 15.0805 48.3165 14.4752C48.8528 13.9727 49.8647 13.5037 51.7792 13.46H52.112C53.1624 13.46 54.1723 13.0832 54.9598 12.2958L53.192 10.528L54.9598 12.2958C55.7996 11.4559 56.124 10.3916 56.124 9.37599V6.71199C56.124 5.69635 55.7996 4.63206 54.9598 3.79222L53.192 5.55999L54.9598 3.79222C54.1199 2.95238 53.0557 2.62799 52.04 2.62799H51.68C47.6589 2.62799 44.1688 3.48638 41.518 5.52072C38.9458 7.49467 37.224 10.3 36.2442 13.7292L36.2405 13.742L36.237 13.7549C35.3397 17.0276 34.924 21.1124 34.924 25.936C34.924 28.1519 34.6307 29.6466 34.2135 30.5863C33.8234 31.4192 33.1876 32.1749 32.2069 32.8414L31.77 33.0599L31.6495 33.1202L31.5361 33.193C30.7148 33.721 29.9214 34.3749 29.3679 35.2052L29.3475 35.2358L29.328 35.267C28.7804 36.1432 28.588 37.1136 28.588 38.032V39.472C28.588 40.4021 28.7844 41.3374 29.2626 42.1981L29.3456 42.3474L29.448 42.484C29.9942 43.2122 30.7575 43.8104 31.5361 44.3109L31.7115 44.4237L31.9032 44.5059L32.2105 44.6375C33.1961 45.2957 33.8263 46.054 34.2067 46.9026L34.2135 46.9177L34.2205 46.9328C34.623 47.7997 34.924 49.2759 34.924 51.568C34.924 56.3936 35.3401 60.4973 36.2343 63.8113ZM97.1882 33.265L97.0748 33.1922L96.9543 33.1319L96.5173 32.9134C95.5307 32.2429 94.8932 31.482 94.5038 30.6432C94.1013 29.7763 93.8003 28.3001 93.8003 26.008C93.8003 21.1427 93.362 17.0269 92.4117 13.7416C91.4782 10.2981 89.7491 7.48576 87.1231 5.51215C84.4737 3.48397 80.9877 2.62799 76.9723 2.62799H76.6123C75.5966 2.62799 74.5323 2.95238 73.6925 3.79222C72.8527 4.63206 72.5283 5.69636 72.5283 6.71199V9.37599C72.5283 10.3916 72.8527 11.4559 73.6925 12.2958C74.5323 13.1356 75.5966 13.46 76.6123 13.46H76.945C78.8908 13.5044 79.8476 13.9868 80.3165 14.4558L80.3353 14.4746L80.3545 14.493C80.9666 15.0796 81.5551 16.1595 81.8435 18.0963L81.8474 18.1219L81.8517 18.1475C82.2003 20.1954 82.3923 23.246 82.3923 27.376C82.3923 32.0801 83.5544 36.0387 86.1783 38.8107C83.548 41.5701 82.3923 45.5465 82.3923 50.272C82.3923 54.402 82.2003 57.4525 81.8517 59.5005L81.848 59.5222L81.8447 59.5439C81.5592 61.4201 80.9766 62.4868 80.3545 63.083C79.8232 63.5922 78.81 64.0718 76.873 64.116H76.6123C75.5966 64.116 74.5323 64.4404 73.6925 65.2802C72.8527 66.1201 72.5283 67.1844 72.5283 68.2V70.864C72.5283 71.8796 72.8527 72.9439 73.6925 73.7838C74.5323 74.6236 75.5966 74.948 76.6123 74.948H77.0443C81.0208 74.948 84.4791 74.0881 87.1236 72.0635C89.7492 70.0899 91.4782 67.2777 92.4117 63.8344C93.3615 60.5509 93.8003 56.4602 93.8003 51.64C93.8003 49.4042 94.0743 47.9254 94.4542 47.0275C94.8563 46.14 95.5044 45.3661 96.4877 44.706L97.0504 44.3934L97.0991 44.3663L97.1465 44.3371C97.9089 43.868 98.6992 43.2493 99.2318 42.4134C99.8094 41.5337 100.064 40.5463 100.064 39.544V38.104C100.064 37.1819 99.8896 36.1716 99.3243 35.267C98.7923 34.4158 97.9683 33.7665 97.1882 33.265Z" fill="#F8D96B" stroke="black" stroke-width="5"/>
<path d="M17.0667 84.2466C17.0667 84.2466 29.9323 70.5403 38.4 70.5403C46.8678 70.5403 59.7334 84.2466 59.7334 84.2466V91.0997C59.7334 91.0997 46.8678 80.82 38.4 80.82C29.9323 80.82 17.0667 91.0997 17.0667 91.0997V84.2466Z" fill="#F8D96B"/>
<path fill-rule="evenodd" clip-rule="evenodd" d="M14.2402 80.3964L17.0667 84.2466V91.0998C17.0667 91.0998 18.7649 89.7429 21.3334 88.0151C25.8346 84.9872 33.0087 80.82 38.4 80.82C43.7914 80.82 50.9655 84.9872 55.4667 88.0151C58.0352 89.7429 59.7334 91.0998 59.7334 91.0998V84.2466L62.5599 80.3964L64 81.9306V100.677L57.3769 95.3846L57.3552 95.3673L57.264 95.2957C57.1801 95.2301 57.051 95.1299 56.8807 95C56.54 94.74 56.0359 94.362 55.4018 93.9054C54.1298 92.9895 52.3539 91.7714 50.3369 90.5589C46.0889 88.0051 41.5452 85.9599 38.4 85.9599C35.2549 85.9599 30.7112 88.0051 26.4632 90.5589C24.4462 91.7714 22.6703 92.9895 21.3983 93.9054C20.7642 94.362 20.2601 94.74 19.9194 95C19.7491 95.1299 19.62 95.2301 19.5361 95.2957L19.4449 95.3673L19.4259 95.3824L12.8 100.677V81.9306L14.2402 80.3964ZM59.7334 84.2466C59.7334 84.2466 46.8678 70.5403 38.4 70.5403C29.9323 70.5403 17.0667 84.2466 17.0667 84.2466C14.2402 80.3964 14.2396 80.397 14.2402 80.3964L14.2466 80.3895L14.2578 80.3776L14.2941 80.3393L14.4213 80.206C14.5297 80.093 14.685 79.9324 14.8829 79.731C15.2784 79.3286 15.8455 78.7619 16.5501 78.0854C17.9547 76.7369 19.9284 74.9306 22.1944 73.1143C24.4481 71.3078 27.0682 69.4289 29.7597 67.986C32.3912 66.5753 35.4192 65.4004 38.4 65.4004C41.3809 65.4004 44.4089 66.5753 47.0404 67.986C49.7319 69.4289 52.352 71.3078 54.6057 73.1143C56.8717 74.9306 58.8453 76.7369 60.25 78.0854C60.9546 78.7619 61.5217 79.3286 61.9172 79.731C62.1151 79.9324 62.2704 80.093 62.3788 80.206L62.506 80.3393L62.5423 80.3776L62.5599 80.3964C62.5605 80.397 62.5599 80.3964 59.7334 84.2466Z" fill="black"/>
<path d="M68.2667 84.2466C68.2667 84.2466 81.1322 70.5403 89.6 70.5403C98.0678 70.5403 110.933 84.2466 110.933 84.2466V91.0997C110.933 91.0997 98.0678 80.82 89.6 80.82C81.1322 80.82 68.2667 91.0997 68.2667 91.0997V84.2466Z" fill="#F8D96B"/>
<path fill-rule="evenodd" clip-rule="evenodd" d="M65.4401 80.3964L68.2667 84.2466V91.0998C68.2667 91.0998 69.9648 89.7429 72.5333 88.0151C77.0345 84.9872 84.2087 80.82 89.6 80.82C94.9913 80.82 102.165 84.9872 106.667 88.0151C109.235 89.7429 110.933 91.0998 110.933 91.0998V84.2466L113.76 80.3964L115.2 81.9306V100.677L108.577 95.3846L108.555 95.3673L108.464 95.2957C108.38 95.2301 108.251 95.1299 108.081 95C107.74 94.74 107.236 94.362 106.602 93.9054C105.33 92.9895 103.554 91.7714 101.537 90.5589C97.2889 88.0051 92.7452 85.9599 89.6 85.9599C86.4548 85.9599 81.9111 88.0051 77.6631 90.5589C75.6461 91.7714 73.8703 92.9895 72.5982 93.9054C71.9641 94.362 71.46 94.74 71.1193 95C70.9491 95.1299 70.8199 95.2301 70.7361 95.2957L70.6449 95.3673L70.6258 95.3824L64 100.677V81.9306L65.4401 80.3964ZM110.933 84.2466C110.933 84.2466 98.0678 70.5403 89.6 70.5403C81.1322 70.5403 68.2667 84.2466 68.2667 84.2466C65.4401 80.3964 65.4395 80.397 65.4401 80.3964L65.4466 80.3895L65.4578 80.3776L65.4941 80.3393L65.6212 80.206C65.7297 80.093 65.885 79.9324 66.0829 79.731C66.4784 79.3286 67.0455 78.7619 67.7501 78.0854C69.1547 76.7369 71.1284 74.9306 73.3943 73.1143C75.648 71.3078 78.2682 69.4289 80.9596 67.986C83.5912 66.5753 86.6192 65.4004 89.6 65.4004C92.5808 65.4004 95.6088 66.5753 98.2404 67.986C100.932 69.4289 103.552 71.3078 105.806 73.1143C108.072 74.9306 110.045 76.7369 111.45 78.0854C112.155 78.7619 112.722 79.3286 113.117 79.731C113.315 79.9324 113.47 80.093 113.579 80.206L113.706 80.3393L113.742 80.3776L113.76 80.3964C113.76 80.397 113.76 80.3964 110.933 84.2466Z" fill="black"/>
<path d="M68.2667 94.5263C68.2667 94.5263 81.1322 80.82 89.6 80.82C98.0678 80.82 110.933 94.5263 110.933 94.5263L107.886 101.379C107.886 101.379 98.0678 87.6732 89.6 87.6732C81.1322 87.6732 68.2667 101.379 68.2667 101.379V94.5263Z" fill="#F8D96B"/>
<path fill-rule="evenodd" clip-rule="evenodd" d="M65.4401 90.6761L68.2667 94.5263V101.38C68.2667 101.38 69.9648 99.5704 72.5333 97.2666C77.0345 93.2294 84.2087 87.6732 89.6 87.6732C95.1062 87.6732 101.183 93.4686 104.761 97.5225C106.685 99.7029 107.886 101.38 107.886 101.38L110.933 94.5263L113.76 90.6761L116.288 93.3696L108.713 110.403L104.658 104.741L104.646 104.725L104.583 104.638C104.523 104.556 104.428 104.429 104.301 104.262C104.048 103.929 103.668 103.44 103.183 102.848C102.208 101.658 100.835 100.083 99.2333 98.5209C97.6202 96.9475 95.8578 95.469 94.1054 94.4024C92.3224 93.3171 90.8016 92.8131 89.6 92.8131C88.3469 92.8131 86.5913 93.3515 84.429 94.5107C82.3266 95.6378 80.1427 97.1854 78.1215 98.8055C76.1126 100.416 74.3407 102.036 73.0684 103.257C72.4345 103.866 71.9303 104.37 71.5892 104.717C71.4187 104.891 71.2893 105.024 71.2052 105.112L71.1136 105.208L71.0943 105.229L64 112.786V92.2104L65.4401 90.6761ZM110.933 94.5263C110.933 94.5263 98.0678 80.82 89.6 80.82C81.1322 80.82 68.2667 94.5263 68.2667 94.5263C65.4401 90.6761 65.4395 90.6768 65.4401 90.6761L65.4466 90.6693L65.4578 90.6574L65.4941 90.619L65.6212 90.4858C65.7297 90.3727 65.885 90.2121 66.0829 90.0108C66.4784 89.6084 67.0455 89.0416 67.7501 88.3652C69.1547 87.0167 71.1284 85.2104 73.3943 83.394C75.648 81.5876 78.2682 79.7086 80.9596 78.2658C83.5912 76.855 86.6192 75.6802 89.6 75.6802C92.5808 75.6802 95.6088 76.855 98.2404 78.2658C100.932 79.7086 103.552 81.5876 105.806 83.394C108.072 85.2104 110.045 87.0167 111.45 88.3652C112.155 89.0416 112.722 89.6084 113.117 90.0108C113.315 90.2121 113.47 90.3727 113.579 90.4858L113.706 90.619L113.742 90.6574L113.76 90.6761C113.76 90.6768 113.76 90.6761 110.933 94.5263Z" fill="black"/>
<path d="M17.0667 94.5263C17.0667 94.5263 29.9323 80.82 38.4 80.82C46.8678 80.82 59.7334 94.5263 59.7334 94.5263L56.6858 101.379C56.6858 101.379 46.8678 87.6732 38.4 87.6732C29.9323 87.6732 17.0667 101.379 17.0667 101.379V94.5263Z" fill="#F8D96B"/>
<path fill-rule="evenodd" clip-rule="evenodd" d="M14.2402 90.6761L17.0667 94.5264V101.38C17.0667 101.38 18.7649 99.5704 21.3334 97.2666C25.8346 93.2294 33.0087 87.6732 38.4 87.6732C43.9062 87.6732 49.9833 93.4686 53.5607 97.5225C55.4848 99.7029 56.6858 101.38 56.6858 101.38L59.7334 94.5264L62.5599 90.6761L65.0881 93.3696L57.5135 110.403L53.4584 104.741L53.4462 104.725L53.3826 104.638C53.3226 104.556 53.2279 104.429 53.1012 104.262C52.8476 103.929 52.4676 103.44 51.9827 102.848C51.0077 101.658 49.6346 100.083 48.0334 98.5209C46.4203 96.9475 44.6579 95.469 42.9055 94.4024C41.1224 93.3172 39.6017 92.8131 38.4 92.8131C37.147 92.8131 35.3914 93.3515 33.2291 94.5107C31.1267 95.6378 28.9427 97.1854 26.9215 98.8055C24.9126 100.416 23.1407 102.036 21.8684 103.257C21.2345 103.866 20.7304 104.37 20.3892 104.717C20.2188 104.891 20.0894 105.024 20.0053 105.112L19.9136 105.208L19.8943 105.229L14.8829 109.795L12.8 92.2104L14.2402 90.6761ZM59.7334 94.5264C59.7334 94.5264 46.8678 80.82 38.4 80.82C29.9323 80.82 17.0667 94.5264 17.0667 94.5264C14.2402 90.6761 14.2402 90.6761 14.2402 90.6761L14.2466 90.6693L14.2578 90.6574L14.2941 90.619L14.4213 90.4858C14.5297 90.3727 14.685 90.2121 14.8829 90.0108C15.2784 89.6084 15.8455 89.0416 16.5501 88.3652C17.9547 87.0167 19.9284 85.2104 22.1944 83.394C24.4481 81.5876 27.0682 79.7086 29.7597 78.2658C32.3912 76.855 35.4192 75.6802 38.4 75.6802C41.3809 75.6802 44.4089 76.855 47.0404 78.2658C49.7319 79.7086 52.352 81.5876 54.6057 83.394C56.8717 85.2104 58.8453 87.0167 60.25 88.3652C60.9546 89.0416 61.5217 89.6084 61.9172 90.0108C62.1151 90.2121 62.2704 90.3727 62.3788 90.4858L62.506 90.619L62.5423 90.6574L62.5599 90.6761C62.5599 90.6761 62.5599 90.6761 59.7334 94.5264Z" fill="black"/>
<path fill-rule="evenodd" clip-rule="evenodd" d="M17.0526 97.0651L19.8163 100.356V106.214C19.8163 106.214 21.4767 105.054 23.9881 103.578C28.3893 100.989 35.404 97.4272 40.6755 97.4272C45.9471 97.4272 52.9618 100.989 57.363 103.578C59.8744 105.054 61.5348 106.214 61.5348 106.214V100.356L64.2985 97.0651L65.7067 98.3765V114.4L59.2307 109.877L59.2094 109.862L59.1203 109.801C59.0383 109.745 58.912 109.659 58.7456 109.548C58.4124 109.326 57.9195 109.003 57.2995 108.613C56.0557 107.83 54.3193 106.788 52.3472 105.752C48.1935 103.569 43.7508 101.821 40.6755 101.821C37.6003 101.821 33.1576 103.569 29.0039 105.752C27.0318 106.788 25.2954 107.83 24.0516 108.613C23.4316 109.003 22.9387 109.326 22.6055 109.548C22.4391 109.659 22.3128 109.745 22.2308 109.801L22.1417 109.862L22.123 109.875L17.2973 112.516L15.6444 98.3765L17.0526 97.0651ZM61.5348 100.356C61.5348 100.356 48.9551 88.6401 40.6755 88.6401C32.396 88.6401 19.8163 100.356 19.8163 100.356C17.0526 97.0651 17.0526 97.0651 17.0526 97.0651L17.0589 97.0592L17.0698 97.0491L17.1053 97.0163L17.2296 96.9024C17.3357 96.8057 17.4875 96.6685 17.681 96.4963C18.0677 96.1524 18.6222 95.6679 19.3112 95.0897C20.6846 93.937 22.6144 92.393 24.83 90.8404C27.0336 89.2962 29.5955 87.6901 32.2272 86.4568C34.8003 85.2508 37.761 84.2466 40.6755 84.2466C43.5901 84.2466 46.5508 85.2508 49.1239 86.4568C51.7556 87.6901 54.3175 89.2962 56.5211 90.8404C58.7367 92.393 60.6665 93.937 62.0399 95.0897C62.7289 95.6679 63.2834 96.1524 63.6701 96.4963C63.8636 96.6685 64.0154 96.8057 64.1215 96.9024L64.2458 97.0163L64.2813 97.0491L64.2985 97.0651C64.2985 97.0651 64.2985 97.0651 61.5348 100.356Z" fill="black"/>
<path fill-rule="evenodd" clip-rule="evenodd" d="M63.986 97.0651L66.7497 100.356V106.214C66.7497 106.214 68.4101 105.054 70.9215 103.578C75.3227 100.989 82.3374 97.4272 87.6089 97.4272C92.8805 97.4272 99.8951 100.989 104.296 103.578C106.808 105.054 108.468 106.214 108.468 106.214V100.356L111.232 97.0651L112.64 98.3765L111.232 113.048L106.164 109.877L106.143 109.862L106.054 109.801C105.972 109.745 105.845 109.659 105.679 109.548C105.346 109.326 104.853 109.003 104.233 108.613C102.989 107.83 101.253 106.788 99.2806 105.752C95.1269 103.569 90.6842 101.821 87.6089 101.821C84.5336 101.821 80.0909 103.569 75.9373 105.752C73.9651 106.788 72.2287 107.83 70.985 108.613C70.365 109.003 69.8721 109.326 69.5389 109.548C69.3724 109.659 69.2462 109.745 69.1642 109.801L69.0751 109.862L69.0564 109.875L62.5778 114.4V98.3765L63.986 97.0651ZM108.468 100.356C108.468 100.356 95.8885 88.6401 87.6089 88.6401C79.3293 88.6401 66.7497 100.356 66.7497 100.356C63.986 97.0651 63.986 97.0651 63.986 97.0651L63.9923 97.0592L64.0032 97.0491L64.0387 97.0163L64.163 96.9024C64.2691 96.8057 64.4209 96.6685 64.6144 96.4963C65.0011 96.1524 65.5556 95.6679 66.2446 95.0897C67.618 93.937 69.5478 92.393 71.7634 90.8404C73.967 89.2962 76.5289 87.6901 79.1606 86.4568C81.7337 85.2508 84.6943 84.2466 87.6089 84.2466C90.5235 84.2466 93.4842 85.2508 96.0573 86.4568C98.6889 87.6901 101.251 89.2962 103.454 90.8404C105.67 92.393 107.6 93.937 108.973 95.0897C109.662 95.6679 110.217 96.1524 110.603 96.4963C110.797 96.6685 110.949 96.8057 111.055 96.9024L111.179 97.0163L111.215 97.0491L111.232 97.0651C111.232 97.0651 111.232 97.0651 108.468 100.356Z" fill="black"/>
<path d="M42.6666 84.2466C42.6666 84.2466 55.5322 70.5403 63.9999 70.5403C72.4677 70.5403 85.3333 84.2466 85.3333 84.2466V91.0997C85.3333 91.0997 72.4677 80.82 63.9999 80.82C55.5322 80.82 42.6666 91.0997 42.6666 91.0997V84.2466Z" fill="#F8D96B"/>
<path fill-rule="evenodd" clip-rule="evenodd" d="M39.5137 81.4235L42.3784 85.5375V92.86C42.3784 92.86 44.0995 91.4102 46.7027 89.5641C51.2647 86.3287 58.5358 81.8762 64 81.8762C69.4642 81.8762 76.7352 86.3287 81.2973 89.5641C83.9005 91.4102 85.6216 92.86 85.6216 92.86V85.5375L88.4863 81.4235L89.9459 83.0628V103.093L83.2333 97.4383L83.2112 97.4199L83.1188 97.3434C83.0339 97.2733 82.903 97.1662 82.7304 97.0274C82.3851 96.7496 81.8742 96.3457 81.2315 95.8578C79.9423 94.8792 78.1424 93.5777 76.0982 92.2821C71.7928 89.5534 67.1877 87.3681 64 87.3681C60.8123 87.3681 56.2072 89.5534 51.9018 92.2821C49.8575 93.5777 48.0577 94.8792 46.7685 95.8578C46.1258 96.3457 45.6149 96.7496 45.2696 97.0274C45.097 97.1662 44.9661 97.2733 44.8811 97.3434L44.7887 97.4199L44.7694 97.436L38.054 103.093V83.0628L39.5137 81.4235ZM85.6216 85.5375C85.6216 85.5375 72.5822 70.8923 64 70.8923C55.4178 70.8923 42.3784 85.5375 42.3784 85.5375C39.5137 81.4235 39.5137 81.4235 39.5137 81.4235L39.5202 81.4162L39.5315 81.4035L39.5683 81.3625L39.6972 81.2201C39.8071 81.0993 39.9645 80.9277 40.1651 80.7126C40.5659 80.2826 41.1407 79.6771 41.8548 78.9543C43.2784 77.5134 45.2788 75.5834 47.5753 73.6426C49.8595 71.7124 52.515 69.7048 55.2428 68.1631C57.91 66.6557 60.9789 65.4004 64 65.4004C67.0211 65.4004 70.09 66.6557 72.7571 68.1631C75.485 69.7048 78.1405 71.7124 80.4246 73.6426C82.7212 75.5834 84.7216 77.5134 86.1452 78.9543C86.8593 79.6771 87.4341 80.2826 87.8349 80.7126C88.0355 80.9277 88.1929 81.0993 88.3028 81.2201L88.4317 81.3625L88.4685 81.4035L88.4863 81.4235C88.4863 81.4235 88.4863 81.4235 85.6216 85.5375Z" fill="black"/>
<path d="M41.8132 95.5543C41.8132 95.5543 54.6788 81.848 63.1466 81.848C71.6143 81.848 84.4799 95.5543 84.4799 95.5543V102.407C84.4799 102.407 71.6143 92.1277 63.1466 92.1277C54.6788 92.1277 41.8132 102.407 41.8132 102.407V95.5543Z" fill="#F8D96B"/>
<path fill-rule="evenodd" clip-rule="evenodd" d="M38.9868 91.7041L41.8133 95.5543V102.407C41.8133 102.407 43.5115 101.051 46.08 99.3228C50.5812 96.2949 57.7553 92.1277 63.1467 92.1277C68.538 92.1277 75.7121 96.2949 80.2133 99.3228C82.7818 101.051 84.48 102.407 84.48 102.407V95.5543L87.3065 91.7041L88.7467 93.2383V111.984L82.1235 106.692L82.1018 106.675L82.0106 106.603C81.9267 106.538 81.7976 106.438 81.6274 106.308C81.2866 106.048 80.7825 105.67 80.1484 105.213C78.8764 104.297 77.1005 103.079 75.0836 101.867C70.8355 99.3128 66.2918 97.2676 63.1467 97.2676C60.0015 97.2676 55.4578 99.3128 51.2098 101.867C49.1928 103.079 47.4169 104.297 46.1449 105.213C45.5108 105.67 45.0067 106.048 44.666 106.308C44.4957 106.438 44.3666 106.538 44.2827 106.603L44.1916 106.675L44.1725 106.69L37.5467 111.984V93.2383L38.9868 91.7041ZM84.48 95.5543C84.48 95.5543 71.6144 81.848 63.1467 81.848C54.6789 81.848 41.8133 95.5543 41.8133 95.5543C38.9868 91.7041 38.9862 91.7047 38.9868 91.7041L38.9933 91.6972L39.0044 91.6853L39.0407 91.647L39.1679 91.5137C39.2763 91.4007 39.4316 91.2401 39.6295 91.0387C40.025 90.6363 40.5921 90.0696 41.2967 89.3931C42.7014 88.0446 44.675 86.2383 46.941 84.422C49.1947 82.6155 51.8148 80.7366 54.5063 79.2937C57.1379 77.883 60.1658 76.7081 63.1467 76.7081C66.1275 76.7081 69.1555 77.883 71.787 79.2937C74.4785 80.7366 77.0986 82.6155 79.3523 84.422C81.6183 86.2383 83.592 88.0446 84.9966 89.3931C85.7012 90.0696 86.2683 90.6363 86.6638 91.0387C86.8617 91.2401 87.017 91.4007 87.1254 91.5137L87.2526 91.647L87.2889 91.6853L87.3065 91.7041C87.3071 91.7047 87.3065 91.7041 84.48 95.5543Z" fill="black"/>
<path d="M41.8132 106.862C41.8132 106.862 54.6788 93.1557 63.1466 93.1557C71.6143 93.1557 84.4799 106.862 84.4799 106.862V113.715C84.4799 113.715 71.6143 103.435 63.1466 103.435C54.6788 103.435 41.8132 113.715 41.8132 113.715V106.862Z" fill="#F8D96B"/>
<path fill-rule="evenodd" clip-rule="evenodd" d="M38.9868 103.012L41.8133 106.862V113.715C41.8133 113.715 43.5115 112.358 46.08 110.631C50.5812 107.603 57.7553 103.435 63.1467 103.435C68.538 103.435 75.7121 107.603 80.2133 110.631C82.7818 112.358 84.48 113.715 84.48 113.715V106.862L87.3065 103.012L88.7467 104.546V117.911L82.1235 118L82.1018 117.983L82.0106 117.911C81.9267 117.846 81.7976 117.745 81.6274 117.615C81.2866 117.355 80.7826 116.977 80.1484 116.521C78.8764 115.605 77.1005 114.387 75.0836 113.174C70.8355 110.62 66.2918 108.575 63.1467 108.575C60.0015 108.575 55.4578 110.62 51.2098 113.174C49.1928 114.387 47.4169 115.605 46.1449 116.521C45.5108 116.977 45.0067 117.355 44.666 117.615C44.4957 117.745 44.3666 117.846 44.2827 117.911L44.1916 117.983L44.1725 117.998L37.5467 117.983V104.546L38.9868 103.012ZM84.48 106.862C84.48 106.862 71.6144 93.1557 63.1467 93.1557C54.6789 93.1557 41.8133 106.862 41.8133 106.862C38.9868 103.012 38.9868 103.012 38.9868 103.012L38.9933 103.005L39.0044 102.993L39.0407 102.955L39.1679 102.821C39.2763 102.708 39.4316 102.548 39.6295 102.346C40.025 101.944 40.5921 101.377 41.2967 100.701C42.7014 99.3524 44.675 97.546 46.941 95.7297C49.1947 93.9232 51.8148 92.0443 54.5063 90.6014C57.1379 89.1907 60.1658 88.0158 63.1467 88.0158C66.1275 88.0158 69.1555 89.1907 71.787 90.6014C74.4785 92.0443 77.0986 93.9232 79.3523 95.7297C81.6183 97.546 83.592 99.3524 84.9966 100.701C85.7012 101.377 86.2683 101.944 86.6638 102.346C86.8617 102.548 87.017 102.708 87.1254 102.821L87.2526 102.955L87.2889 102.993L87.3065 103.012C87.3065 103.012 87.3065 103.012 84.48 106.862Z" fill="black"/>
<path d="M19.9001 118.498L12.4924 102.939H115.507L108.1 118.498H19.9001Z" fill="#AEACAC" stroke="black" stroke-width="5"/>
<path d="M2.5 94.0495H125.5V103.214H64H2.5V94.0495Z" fill="#C4C4C4" stroke="black" stroke-width="5"/>
</svg>
